#N canvas 946 23 654 756 8;
#X obj 5 22 * 2400;
#X obj 5 43 + 6000;
#X obj 5 64 int;
#X obj 5 85 * 0.01;
#X obj 109 18 loadbang;
#X obj 5 239 outlet~;
#X obj 5 3 inlet;
#X msg 109 50 model 11;
#X obj 5 170 else/plaits~ -midi -trigger;
#X obj 5 114 makenote 100 500;
#X obj 5 135 pack f f;
#X obj 5 191 snake~ in 2, f 14;
#X connect 0 0 1 0;
#X connect 1 0 2 0;
#X connect 2 0 3 0;
#X connect 3 0 9 0;
#X connect 4 0 7 0;
#X connect 6 0 0 0;
#X connect 7 0 8 0;
#X connect 8 0 11 0;
#X connect 8 1 11 1;
#X connect 9 0 10 0;
#X connect 9 1 10 1;
#X connect 10 0 8 0;
#X connect 11 0 5 0;
