#N canvas 80 118 589 428 8;
#X obj 17 108 else/plaits~ -midi -trigger;
#X obj 17 182 outlet~;
#X obj 83 182 outlet~;
#X obj 17 12 inlet;
#X obj 17 52 makenote 100 500;
#X obj 17 73 pack f f;
#X obj 171 54 inlet;
#X connect 0 0 1 0;
#X connect 0 1 2 0;
#X connect 3 0 4 0;
#X connect 4 0 5 0;
#X connect 4 1 5 1;
#X connect 5 0 0 0;
#X connect 6 0 0 0;
