#N canvas 958 -23 543 900 8;
#X msg 16 48 score.svg;
#X msg 61 88 stop;
#X obj 115 6 py4pd -lib py4pd;
#X msg 54 67 reload;
#X msg 23 67 play;
#X obj 2 6 py4pd -lib py4pd-upic;
#X obj 16 166 svg2data;
#X obj 53 124 loadbang;
#X obj 16 186 thing2pd;
#X obj 16 206 unpack f s f, f 35;
#X obj 16 228 nbx 5 14 -1e+37 1e+37 0 0 empty empty empty 0 -8 0 8 #fcfcfc #000000 #000000 0 256;
#X obj 16 247 * 0.01;
#X obj 102 260 color2par;
#X msg 113 229 reload;
#X obj 16 296 pack f f, f 15;
#X obj 16 275 makenote 40 500;
#X obj 16 383 dac~, f 18;
#X obj 16 317 list prepend next;
#X obj 16 338 list trim;
#X obj 16 359 clone my-plaits 40;
#X msg 53 146 rect803;
#X obj 138 102 py4pd;
#X msg 138 81 pip install svgpathtools;
#X connect 0 0 6 0;
#X connect 1 0 6 0;
#X connect 3 0 6 0;
#X connect 4 0 6 0;
#X connect 6 0 8 0;
#X connect 7 0 20 0;
#X connect 8 0 9 0;
#X connect 9 0 10 0;
#X connect 9 1 12 0;
#X connect 10 0 11 0;
#X connect 11 0 15 0;
#X connect 13 0 12 0;
#X connect 14 0 17 0;
#X connect 15 0 14 0;
#X connect 15 1 14 1;
#X connect 17 0 18 0;
#X connect 18 0 19 0;
#X connect 19 0 16 0;
#X connect 19 1 16 1;
#X connect 20 0 6 1;
#X connect 22 0 21 0;
