#N canvas 963 28 951 1012 8;
#X obj 127 5 py4pd -lib py4pd;
#X msg 113 90 reload;
#X obj 16 28 bng 25 250 50 0 empty empty empty 0 -8 0 8 #fcfcfc #000000 #000000;
#X text 176 59 * Qualquer coisa que é evento deve ser preenchido.;
#X text 177 80 * Qualquer coisa não preenchida é considera como box para conteudo (eventos)., f 50;
#N canvas 963 28 951 486 propertiesKeyWords 0;
#X text 3 24 duration 1000 | in ms.;
#X text 3 7 pitchrange 6000 8400 | in midicents.;
#X restore 214 5 pd propertiesKeyWords;
#X msg 77 141 pointers 1;
#X msg 16 109 play;
#X obj 15 5 py4pd -lib py4pd-upic;
#X msg 61 192 reload;
#X obj 16 192 readsvg;
#X obj 16 224 svg2pd;
#X obj 16 66 t b b b, f 20;
#X msg 65 109 examples/score.svg;
#X obj 107 240 py4pd;
#X msg 107 192 pip install svgpathtools;
#X msg 115 214 pip install svgelements;
#X obj 16 245 print;
#X connect 1 0 10 0;
#X connect 2 0 12 0;
#X connect 6 0 10 0;
#X connect 7 0 10 0;
#X connect 9 0 11 0;
#X connect 10 0 11 0;
#X connect 11 0 17 0;
#X connect 12 0 7 0;
#X connect 12 1 13 0;
#X connect 12 2 1 0;
#X connect 13 0 10 0;
#X connect 15 0 14 0;
#X connect 16 0 14 0;
