#N canvas 870 32 888 934 8;
#X declare -path lib;
#X msg 65 109 score.svg;
#X obj 127 5 py4pd -lib py4pd;
#X msg 113 90 reload;
#X obj 16 28 bng 25 250 50 0 empty empty empty 0 -8 0 8 #fcfcfc #000000 #000000;
#X text 176 59 * Qualquer coisa que é evento deve ser preenchido.;
#X text 177 80 * Qualquer coisa não preenchida é considera como box para conteudo (eventos)., f 50;
#N canvas 80 118 667 518 propertiesKeyWords 0;
#X text 3 24 duration 1000 | in ms.;
#X text 3 7 pitchrange 6000 8400 | in midicents.;
#X restore 189 162 pd propertiesKeyWords;
#X msg 77 141 pointers 1;
#X msg 16 109 play;
#X obj 15 5 py4pd -lib py4pd-upic;
#X msg 61 192 reload;
#X obj 16 192 readsvg;
#X obj 16 224 svg2pd;
#N canvas 283 116 922 437 Ellipse 0;
#X obj 7 5 inlet;
#N canvas 519 121 450 672 #5ea3d0 0;
#X obj 7 12 inlet;
#X obj 7 249 throw~ output;
#X obj 7 226 snake~ in 2;
#X obj 7 33 unpack f f;
#X obj 7 54 % 30;
#X obj 7 75 pack f f, f 10;
#X obj 7 139 clone 30 ellipse;
#X connect 0 0 3 0;
#X connect 2 0 1 0;
#X connect 3 0 4 0;
#X connect 3 1 5 1;
#X connect 4 0 5 0;
#X connect 5 0 6 0;
#X connect 6 0 2 0;
#X connect 6 0 2 1;
#X restore 7 150 pd #5ea3d0;
#X obj 329 46 print notImplemented;
#X obj 7 26 route #5ea3d0 #ff0000, f 65;
#N canvas 519 121 943 752 #ff0000 0;
#X obj 7 47 * 2400;
#X obj 7 68 + 6000;
#X obj 7 89 int;
#X obj 7 110 * 0.01;
#X obj 7 263 clone my-plaits 10;
#X obj 7 136 list prepend next;
#X obj 7 157 list trim;
#X msg 142 173 all model 11;
#X obj 142 141 loadbang;
#X obj 7 12 inlet;
#X obj 7 313 throw~ output;
#X obj 144 200 loadbang;
#X msg 144 221 harmonics 1 \, timbre 0 \, morph 0 \, cutoff 0.5 \, \, decay 0.5;
#X obj 144 242 list prepend all;
#X obj 144 263 list trim;
#X connect 0 0 1 0;
#X connect 1 0 2 0;
#X connect 2 0 3 0;
#X connect 3 0 5 0;
#X connect 4 0 10 0;
#X connect 5 0 6 0;
#X connect 6 0 4 0;
#X connect 7 0 4 1;
#X connect 8 0 7 0;
#X connect 9 0 0 0;
#X connect 11 0 12 0;
#X connect 12 0 13 0;
#X connect 13 0 14 0;
#X connect 14 0 4 1;
#X restore 168 149 pd #ff0000;
#X connect 0 0 3 0;
#X connect 3 0 1 0;
#X connect 3 1 4 0;
#X connect 3 2 2 0;
#X restore 16 282 pd Ellipse;
#X obj 16 259 route Ellipse Path, f 62;
#N canvas -11 27 728 619 (subpatch) 0;
#X obj 30 86 else/keyboard 17 80 1 4 0 0 empty empty;
#X obj 30 252 else/plaits~ -midi -trigger;
#X obj 30 278 dac~, f 14;
#X msg 92 192 model 11;
#N canvas 635 23 437 432 messages 0;
#X msg 228 141 harmonics \$1;
#X msg 256 192 timbre \$1;
#X msg 274 244 morph \$1;
#X obj 249 305 outlet;
#X obj 115 119 else/knob 50 0 1 0 0.5 empty empty #dfdfdf #7c7c7c black 0 0 0 0 1 320 0 0 0.5;
#X text 111 104 Harmonics;
#X obj 115 188 else/knob 50 0 1 0 0.5 empty empty #dfdfdf #7c7c7c black 0 0 0 0 1 320 0 0 0.5;
#X text 119 173 Timbre;
#X obj 115 257 else/knob 50 0 1 0 0.5 empty empty #dfdfdf #7c7c7c black 0 0 0 0 1 320 0 0 0.5;
#X text 123 242 Morph;
#X connect 0 0 3 0;
#X connect 1 0 3 0;
#X connect 2 0 3 0;
#X connect 4 0 0 0;
#X connect 6 0 1 0;
#X connect 8 0 2 0;
#X coords 0 -1 1 1 81 214 2 100 100;
#X restore 156 10 pd messages;
#X msg 39 201 dump;
#X obj 156 278 print;
#X connect 0 0 1 0;
#X connect 1 0 2 0;
#X connect 1 1 2 1;
#X connect 1 2 6 0;
#X connect 3 0 1 0;
#X connect 4 0 1 0;
#X connect 5 0 1 0;
#X restore 359 119 pd;
#N canvas 367 49 811 302 Path 0;
#X obj 4 6 inlet;
#X obj 4 35 route #ff0000;
#X obj 80 35 route #0000ff;
#X obj 80 56 route P12;
#X obj 4 56 route P12;
#X obj 80 114 clone sen2 53;
#X obj 4 114 clone sen 53;
#X connect 0 0 1 0;
#X connect 0 0 2 0;
#X connect 1 0 4 0;
#X connect 2 0 3 0;
#X connect 3 0 5 0;
#X connect 4 0 6 0;
#X restore 169 282 pd Path;
#X obj 16 382 snake~ out 2, f 23;
#X obj 16 434 dac~, f 23;
#X obj 16 336 catch~ output 2;
#X msg 370 419 \; pd dsp \$1;
#X obj 370 375 tgl 25 0 empty empty empty 0 -13 0 8 #fcfcfc #000000 #000000 0 1;
#X msg 89 170 stop;
#X obj 16 406 piro/multiconvolve~ 2 2;
#N canvas 492 174 668 454 config 0;
#X obj 12 98 soundfiler;
#X obj 12 37 loadbang;
#X obj 68 178 outlet;
#X obj 130 97 loadbang;
#X msg 12 58 read -resize BM7_Small_Chamber.aif ir1;
#X obj 81 7 array define ir1;
#X msg 60 123 set 1 1 ir1 \, set 2 2 ir1;
#X connect 1 0 4 0;
#X connect 3 0 6 0;
#X connect 4 0 0 0;
#X connect 6 0 2 0;
#X restore 186 355 pd config;
#X obj 16 357 *~ 0.05;
#X obj 139 434 writesf~ 2;
#X obj 215 5 declare -path lib;
#X obj 16 66 t b b b, f 20;
#X connect 0 0 11 0;
#X connect 2 0 11 0;
#X connect 3 0 28 0;
#X connect 7 0 11 0;
#X connect 8 0 11 0;
#X connect 10 0 12 0;
#X connect 11 0 12 0;
#X connect 12 0 14 0;
#X connect 14 0 13 0;
#X connect 14 1 16 0;
#X connect 17 0 23 0;
#X connect 17 1 23 1;
#X connect 19 0 25 0;
#X connect 21 0 20 0;
#X connect 22 0 11 0;
#X connect 23 0 18 0;
#X connect 23 0 26 0;
#X connect 23 1 18 1;
#X connect 23 1 26 1;
#X connect 24 0 23 0;
#X connect 25 0 17 0;
#X connect 28 0 8 0;
#X connect 28 1 0 0;
#X connect 28 2 2 0;
