#N canvas 80 118 904 778 8;
#X obj 4 185 osc~;
#X obj 4 325 *~ 0.1;
#X obj 4 302 *~, f 10;
#X obj 99 287 line~;
#X obj 4 131 + 400;
#X obj 4 110 * 800;
#X obj 4 76 t a b, f 31;
#X obj 156 130 spigot;
#X obj 183 9 loadbang;
#X msg 183 29 1;
#X msg 99 179 0 \, 1 200;
#X obj 183 91 tgl 15 0 empty empty empty 0 -8 0 8 #fcfcfc #000000 #000000 0 1;
#X obj 229 129 ==;
#X msg 156 151 0;
#X obj 202 180 spigot;
#X obj 202 201 t b b;
#X obj 202 276 del 5 1 msec;
#X msg 224 229 stop;
#X msg 202 313 1 \, 0 200;
#X msg 259 313 1;
#X obj 4 8 inlet;
#X obj 4 365 throw~ output;
#X obj 4 346 snake~ in 2;
#X obj 33 185 osc~;
#X obj 33 154 * 3;
#X connect 0 0 2 0;
#X connect 1 0 22 0;
#X connect 1 0 22 1;
#X connect 2 0 1 0;
#X connect 3 0 2 1;
#X connect 4 0 0 0;
#X connect 4 0 24 0;
#X connect 5 0 4 0;
#X connect 6 0 5 0;
#X connect 6 1 7 0;
#X connect 6 1 14 0;
#X connect 7 0 10 0;
#X connect 7 0 13 0;
#X connect 8 0 9 0;
#X connect 9 0 11 0;
#X connect 10 0 3 0;
#X connect 11 0 12 0;
#X connect 11 0 7 1;
#X connect 12 0 14 1;
#X connect 13 0 11 0;
#X connect 14 0 15 0;
#X connect 15 0 16 0;
#X connect 15 1 17 0;
#X connect 16 0 18 0;
#X connect 16 0 19 0;
#X connect 17 0 16 0;
#X connect 18 0 3 0;
#X connect 19 0 11 0;
#X connect 20 0 6 0;
#X connect 22 0 21 0;
#X connect 23 0 2 0;
#X connect 24 0 23 0;
