#N canvas 1282 23 632 1016 10;
#N canvas 1282 23 632 1016 config 0;
#X obj 6 8 py4pd -lib py4pd-upic;
#X obj 6 30 py4pd -lib py4pd;
#X restore 5 5 pd config;
#X msg 16 56 play;
#X msg 25 82 stop;
#X msg 6 34 score.svg;
#X msg 154 123 id;
#X msg 186 123 type;
#X text 80 3 Get the attr data from a input svg thing.;
#X obj 6 198 list;
#X obj 5 293 cnv 40 150 102 empty upic-color empty 20 50 0 30 #00ffcc #fcfcfc 0;
#X msg 6 220 color \$1;
#X obj 6 264 s upic-color;
#X text 163 292 <= Of course \, this will just work with the color id, f 26;
#X obj 6 122 playsvg;
#X msg 77 61 reload;
#X obj 6 176 attrget fill;
#X msg 111 123 fill;
#X connect 1 0 12 0;
#X connect 2 0 12 0;
#X connect 3 0 12 0;
#X connect 4 0 14 1;
#X connect 5 0 14 1;
#X connect 7 0 9 0;
#X connect 9 0 10 0;
#X connect 12 0 14 0;
#X connect 13 0 12 0;
#X connect 14 0 7 0;
#X connect 15 0 14 1;
